<svg width="36" height="36" viewBox="0 0 36 36" fill="none" xmlns="http://www.w3.org/2000/svg">
<path d="M18 32C19.1046 32 20 31.1046 20 30C20 28.8954 19.1046 28 18 28C16.8954 28 16 28.8954 16 30C16 31.1046 16.8954 32 18 32Z" fill="black"/>
<path d="M26.1368 1H9.86263C8.7822 1.06448 7.77102 1.54994 7.04873 2.35091C6.32644 3.15188 5.9514 4.20367 6.00506 5.27781V30.7222C5.9514 31.7963 6.32644 32.8481 7.04873 33.6491C7.77102 34.4501 8.7822 34.9355 9.86263 35H26.1368C27.2183 34.9386 28.2314 34.454 28.9543 33.6524C29.6773 32.8507 30.0512 31.7971 29.9943 30.7222V5.27781C30.0512 4.20288 29.6773 3.14933 28.9543 2.34764C28.2314 1.54596 27.2183 1.06141 26.1368 1ZM28.2722 30.7222C28.328 31.3432 28.135 31.9609 27.7352 32.4415C27.3354 32.922 26.7611 33.2265 26.1368 33.2889H9.86263C9.23958 33.2235 8.66711 32.9182 8.26793 32.4384C7.86875 31.9586 7.67463 31.3425 7.72719 30.7222V26.4444H28.2722V30.7222ZM28.2722 24.7333H7.72719V5.27781C7.67463 4.65749 7.86875 4.0414 8.26793 3.56161C8.66711 3.08182 9.23958 2.7765 9.86263 2.71112H26.1368C26.7611 2.77352 27.3354 3.07802 27.7352 3.55854C28.135 4.03905 28.328 4.65682 28.2722 5.27781V24.7333Z" fill="black"/>
</svg>
